:SAMPLES-PER-SECOND 30
:FULLY-SPECIFIED
:DEGREES
1139
root  -32.686 40.5727 -23.9447 -4.10518 18.4573 -1.66534
RightUpLeg  3.07962 -16.5433 -16.4485
RightLeg  3.46152 -45.8371 6.45929
RightFoot  8.18984 -0.401891 2.65682
RightToes  0.00048216 0.542163 -0.142577
Spine  26.9442 -2.75525 11.0938
Spine1  2.18692 0.66904 -4.41992
HEad  -23.0435 41.4361 -25.6996
LeftShoulder1  9.94834 -15.2367 -46.3051
LeftArm  -9.84473 17.5677 -24.535
LeftForeArm  71.4016 -79.3823 -76.5997
LeftHand  -0.25398 0.0180481 5.50724
RightShoulder  4.2865 8.34648 30.2126
RightArm  -7.64659 -35.0453 21.7404
RightForeArm  44.3821 76.6491 111.805
RightHand  0.848643 -12.1843 -15.3081
LeftUpLeg  -11.0237 28.4059 11.6604
LeftLeg  23.8147 17.3722 8.53111
LeftFoot  -7.8401 -0.0141406 1.94701
LeftToes  1.06244e-005 4.65855e-005 -8.18506e-006
1140
root  -31.6459 40.3977 -24.3285 -3.80171 24.7894 -1.81628
RightUpLeg  4.9076 -17.2806 -18.7945
RightLeg  2.99779 -49.6861 6.48973
RightFoot  9.43068 -0.658093 3.93729
RightToes  0.00048216 0.542163 -0.142577
Spine  25.2778 -2.99573 10.2381
Spine1  2.30841 -0.168213 -3.41656
HEad  -22.2527 37.9269 -24.1657
LeftShoulder1  9.82669 -15.3891 -45.3386
LeftArm  -10.268 17.5266 -26.5103
LeftForeArm  71.4512 -79.3837 -76.2538
LeftHand  -0.25398 0.0180481 5.50724
RightShoulder  4.22899 8.24457 30.0343
RightArm  -8.15677 -36.4741 21.6067
RightForeArm  47.9368 76.2776 115.453
RightHand  0.888496 -12.6082 -15.0766
LeftUpLeg  -11.6107 28.1571 11.0636
LeftLeg  23.7507 20.2821 9.79596
LeftFoot  -8.1895 0.0220215 1.0694
LeftToes  1.06244e-005 4.65855e-005 -8.18506e-006
1141
root  -30.4744 40.1268 -24.7563 -3.65912 30.82 -2.16608
RightUpLeg  6.41356 -18.2482 -21.2432
RightLeg  4.63059 -51.101 5.17898
RightFoot  9.0434 -1.04942 6.21347
RightToes  0.00048216 0.542163 -0.142577
Spine  23.9437 -3.07678 9.92277
Spine1  2.41716 -0.569765 -2.87154
HEad  -20.9322 33.6766 -22.2885
LeftShoulder1  9.68139 -15.6912 -43.9002
LeftArm  -9.7492 16.5577 -29.0694
LeftForeArm  71.5987 -79.3915 -75.74
LeftHand  -0.25398 0.0180481 5.50724
RightShoulder  4.22163 8.27344 29.881
RightArm  -9.16895 -38.7337 20.7326
RightForeArm  51.5613 75.6884 120.029
RightHand  0.921453 -13.0166 -14.7997
LeftUpLeg  -12.4218 28.5817 9.87612
LeftLeg  24.2763 19.2783 9.55581
LeftFoot  -7.25668 0.133974 -2.46943
LeftToes  1.06244e-005 4.65855e-005 -8.18506e-006
1142
root  -29.2493 39.87 -25.2191 -3.80783 35.7927 -2.16681
RightUpLeg  6.86904 -19.4281 -23.4021
RightLeg  8.22416 -45.5444 1.61689
RightFoot  5.76437 -1.00569 6.89867
RightToes  0.00048216 0.542163 -0.142577
Spine  23.4201 -2.78777 9.37624
Spine1  2.66086 -0.461428 -2.701
HEad  -19.6723 29.2839 -20.3089
LeftShoulder1  9.51273 -15.9285 -42.5283
LeftArm  -8.04686 14.5107 -30.9775
LeftForeArm  72.8262 -79.4488 -76.3151
LeftHand  -0.25398 0.0180481 5.50724
RightShoulder  4.23248 8.34956 29.7398
RightArm  -10.3463 -41.1018 19.6731
RightForeArm  53.8171 75.0834 123.803
RightHand  0.966993 -13.6314 -14.3804
LeftUpLeg  -12.8112 31.1161 8.06666
LeftLeg  24.6072 14.4419 7.43371
LeftFoot  -6.54554 0.24225 -4.91693
LeftToes  1.06244e-005 4.65855e-005 -8.18506e-006
1143
root  -28.0616 39.7182 -25.6909 -4.04587 39.9314 -1.27655
RightUpLeg  5.79001 -20.4243 -24.3497
RightLeg  12.1006 -31.2861 -2.97275
RightFoot  0.424573 -0.471529 4.45982
RightToes  0.00048216 0.542163 -0.142577
Spine  23.7664 -2.40008 8.01584
Spine1  3.18881 -0.32552 -2.54289
HEad  -18.8943 25.3692 -18.8424
LeftShoulder1  9.34347 -15.9934 -41.5675
LeftArm  -6.02286 11.6411 -31.7234
LeftForeArm  71.4304 -79.3822 -74.81
LeftHand  -0.25398 0.0180481 5.50724
RightShoulder  4.23657 8.40162 29.6158
RightArm  -11.5957 -42.5744 19.5036
RightForeArm  54.5076 74.7712 125.487
RightHand  0.998098 -14.259 -13.8136
LeftUpLeg  -12.4384 33.5554 5.49278
LeftLeg  24.9654 9.26835 5.01845
LeftFoot  -7.48606 0.174022 -3.68626
LeftToes  1.06244e-005 4.65855e-005 -8.18506e-006
1144
root  -26.9559 39.6724 -26.1019 -4.09167 43.6944 0.257996
RightUpLeg  3.55201 -15.8362 -23.2146
RightLeg  15.9239 -16.476 -5.22075
RightFoot  -4.83705 -0.073765 0.81776
RightToes  0.00048216 0.542163 -0.142577
Spine  24.3726 -2.20445 6.13697
Spine1  3.94899 -0.501674 -2.47585
HEad  -18.0004 22.4441 -17.9618
LeftShoulder1  9.23647 -15.9748 -41.0959
LeftArm  -4.76007 8.77029 -31.6971
LeftForeArm  65.2912 -79.0152 -69.1648
LeftHand  -0.25398 0.0180481 5.50724
RightShoulder  4.26544 8.45355 29.7042
RightArm  -12.771 -42.6985 20.2314
RightForeArm  53.8608 74.8506 125.028
RightHand  1.00161 -14.5163 -13.4908
LeftUpLeg  -11.0907 32.9817 2.71431
LeftLeg  25.1009 6.95263 3.88526
LeftFoot  -9.53102 0.074156 -1.1214
LeftToes  1.06244e-005 4.65855e-005 -8.18506e-006
1145
root  -25.8771 39.7164 -26.3832 -4.06448 46.996 1.48724
RightUpLeg  0.564598 -6.28228 -20.8095
RightLeg  21.0805 -7.85338 -3.57787
RightFoot  -7.56397 -0.0257188 -0.616574
RightToes  0.00048216 0.542163 -0.142577
Spine  24.5507 -2.11648 4.37395
Spine1  4.57436 -0.877184 -2.39567
HEad  -15.9784 20.7124 -17.0466
LeftShoulder1  9.21698 -15.9407 -41.0801
LeftArm  -4.4948 6.85971 -31.428
LeftForeArm  58.1013 -78.4121 -62.4435
LeftHand  -0.25398 0.0180481 5.50724
RightShoulder  4.34408 8.54065 30.1058
RightArm  -13.3288 -41.7963 20.7776
RightForeArm  51.6974 75.1924 123.021
RightHand  1.00886 -14.3504 -13.8172
LeftUpLeg  -8.82869 30.2816 0.593882
LeftLeg  24.2514 6.90711 3.78869
LeftFoot  -11.1492 0.0652028 -0.0929256
LeftToes  1.06244e-005 4.65855e-005 -8.18506e-006
1146
root  -24.7375 39.8686 -26.5429 -4.4426 49.8026 1.69006
RightUpLeg  -2.6276 -3.21584 -17.7656
RightLeg  25.5915 -2.37288 -1.51102
RightFoot  -7.38539 -0.0842587 0.947217
RightToes  0.00048216 0.542163 -0.142577
Spine  24.1807 -2.05785 3.08307
Spine1  4.75621 -1.32964 -1.78689
HEad  -12.6153 19.8247 -15.5024
LeftShoulder1  9.21906 -15.8393 -41.3241
LeftArm  -4.7489 6.27916 -31.1279
LeftForeArm  54.3738 -77.9875 -58.6789
LeftHand  -0.25398 0.0180481 5.50724
RightShoulder  4.43347 8.6293 30.5864
RightArm  -13.0818 -40.6525 20.6704
RightForeArm  48.5604 75.5638 120.559
RightHand  1.02652 -13.8576 -14.8007
LeftUpLeg  -5.73474 27.7228 -0.235761
LeftLeg  22.0996 7.11747 3.16419
LeftFoot  -11.8588 0.0694021 -0.377972
LeftToes  1.06244e-005 4.65855e-005 -8.18506e-006
1147
root  -23.5371 40.0943 -26.6298 -5.37331 52.6086 1.00879
RightUpLeg  -5.30632 -3.86318 -13.8755
RightLeg  28.5105 -3.80969 -2.4876
RightFoot  -7.21791 -0.145827 2.69045
RightToes  0.00048216 0.542163 -0.142577
Spine  23.6344 -2.12191 2.1197
Spine1  4.5039 -1.94051 -0.534015
HEad  -8.7285 19.0506 -13.3307
LeftShoulder1  9.15397 -15.6705 -41.3995
LeftArm  -4.98994 6.67963 -30.8855
LeftForeArm  54.6406 -77.9976 -58.6526
LeftHand  -0.25398 0.0180481 5.50724
RightShoulder  4.47422 8.65567 30.8455
RightArm  -12.5279 -40.1215 20.4169
RightForeArm  46.5207 75.7191 119.386
RightHand  1.02269 -13.152 -15.993
LeftUpLeg  -1.96478 23.0478 0.262238
LeftLeg  19.1481 9.41537 1.09289
LeftFoot  -12.2787 0.0684053 -0.654899
LeftToes  1.06244e-005 4.65855e-005 -8.18506e-006
1148
root  -22.2998 40.3102 -26.6803 -6.53339 55.9784 -0.177673
RightUpLeg  -7.74223 -6.08108 -9.42472
RightLeg  29.4968 -8.40303 -5.31853
RightFoot  -7.83257 -0.107509 1.78178
RightToes  0.00048216 0.542163 -0.142577
Spine  22.9969 -2.46568 1.49218
Spine1  4.04084 -2.76293 0.981216
HEad  -5.33476 17.8497 -10.9751
LeftShoulder1  9.0023 -15.5352 -40.9713
LeftArm  -4.89894 7.4663 -30.8621
LeftForeArm  57.2883 -78.302 -61.2264
LeftHand  -0.25398 0.0180481 5.50724
RightShoulder  4.43451 8.56255 30.7994
RightArm  -12.1497 -40.7755 20.4107
RightForeArm  47.4725 75.4972 120.887
RightHand  0.998533 -12.6038 -16.7526
LeftUpLeg  1.62204 16.107 0.620382
LeftLeg  15.7164 13.2744 -1.43471
LeftFoot  -12.684 0.0691781 -0.593453
LeftToes  1.06244e-005 4.65855e-005 -8.18506e-006
